<?xml version="1.0" standalone="no"?>
<!DOCTYPE svg PUBLIC "-//W3C//DTD SVG 20010904//EN"
 "http://www.w3.org/TR/2001/REC-SVG-20010904/DTD/svg10.dtd">
<svg version="1.0" xmlns="http://www.w3.org/2000/svg"
 width="700.000000pt" height="700.000000pt" viewBox="0 0 700.000000 700.000000"
 preserveAspectRatio="xMidYMid meet">
<metadata>
Created by potrace 1.14, written by Peter Selinger 2001-2017
</metadata>
<g transform="translate(0.000000,700.000000) scale(0.100000,-0.100000)"
fill="#000000" stroke="none">
<path d="M0 3500 l0 -3500 3500 0 3500 0 0 3500 0 3500 -3500 0 -3500 0 0
-3500z m2230 2200 l0 -920 -925 0 -925 0 0 743 c0 806 0 807 55 902 30 50 107
125 156 151 83 43 81 43 877 43 l762 1 0 -920z m2200 5 l0 -915 -920 0 -920 0
0 915 0 915 920 0 920 0 0 -915z m1930 892 c100 -39 191 -131 229 -232 21 -55
21 -70 21 -827 l0 -771 -127 6 c-71 4 -482 7 -915 7 l-788 0 0 920 0 921 768
-3 c703 -3 771 -5 812 -21z m-1934 -2171 c1 0 -1 -414 -4 -918 l-5 -918 -746
0 c-410 0 -824 3 -918 7 l-173 6 0 919 0 919 923 -7 c507 -3 923 -7 923 -8z
m-2196 -459 c0 -255 -3 -667 -7 -915 l-6 -452 -919 0 -918 0 0 915 0 915 925
0 925 0 0 -463z m3982 453 l408 0 0 -915 0 -915 -925 0 -925 0 0 853 c0 468 3
883 7 921 l6 69 510 -6 c281 -4 694 -7 919 -7z m-1794 -2185 c9 -4 12 -198 12
-930 l0 -925 -920 0 -920 0 0 934 0 934 908 -5 c499 -2 913 -6 920 -8z m-2178
-925 l0 -930 -758 0 c-663 0 -765 2 -813 16 -109 32 -208 118 -257 222 l-27
57 -3 783 -2 782 930 0 930 0 0 -930z m4378 158 l-3 -773 -23 -58 c-30 -73
-75 -132 -137 -179 -102 -77 -50 -73 -907 -76 l-768 -3 0 931 0 930 920 0 921
0 -3 -772z"/>
</g>
</svg>
